<?xml version="1.0" encoding="utf-8"?>
<!-- Generator: Adobe Illustrator 19.0.0, SVG Export Plug-In . SVG Version: 6.00 Build 0)  -->
<svg version="1.1" id="Layer_1" xmlns="http://www.w3.org/2000/svg" xmlns:xlink="http://www.w3.org/1999/xlink" x="0px" y="0px"
	 viewBox="0 0 500 500" style="enable-background:new 0 0 500 500;" xml:space="preserve">
<style type="text/css">
	.st0{fill:#BA72AC;}
	.st1{fill:#FFFFFF;}
</style>
<g id="XMLID_1_">
	<path id="XMLID_15_" class="st0" d="M247.2,306.9h-24.9v-55.3h-28.9v77.3h53.8V306.9z M147.3,287.8v14.7h10.8
		c-0.8,2.9-3.5,6.3-11.2,6.3c-10.9,0-13.2-8.2-13.2-17.4v-0.9c0-11.4,4.9-17.4,12.2-17.4c6.6,0,9.4,3.2,9.8,7.9h28.4
		c-1-21.6-18.6-30.5-38.4-30.5c-23.7,0-42.1,15.5-42.1,39.5v0.9c0,23.5,14.6,39.7,42.1,39.7c27.8,0,40.1-16.3,40.1-34.7v-7.9H147.3z
		 M67.5,328.9h29.1v-77.3H67.5V328.9z M254.3,256.5c0-51,39.9-92.3,89.1-92.3c49.2,0,89.1,41.3,89.1,92.3h0v79.4H254.3V256.5z"/>
	<path id="XMLID_20_" class="st1" d="M285.2,290.4c0,8.3,6.8,15.1,15.1,15.1c8.3,0,15.1-6.8,15.1-15.1c0-8.3-6.8-15.1-15.1-15.1
		C292,275.3,285.2,282.1,285.2,290.4 M260.2,290.4c0-22.1,18-40.1,40.1-40.1c22.1,0,40.1,18,40.1,40.1c0,22.1-18,40.1-40.1,40.1
		C278.2,330.5,260.2,312.5,260.2,290.4 M386.5,275.3c-8.3,0-15.1,6.7-15.1,15.1c0,8.3,6.8,15.1,15.1,15.1c8.3,0,15.1-6.8,15.1-15.1
		C401.6,282.1,394.8,275.3,386.5,275.3 M386.5,330.5c-22.1,0-40.1-18-40.1-40.1c0-22.1,18-40.1,40.1-40.1c22.1,0,40.1,18,40.1,40.1
		C426.6,312.5,408.6,330.5,386.5,330.5"/>
</g>
</svg>
